<svg width="64" height="64" viewBox="0 0 64 64" xmlns="http://www.w3.org/2000/svg" fill="none">
  <rect width="64" height="64" rx="12" fill="#0A0A32"/>
  <path d="M32 10C20.96 10 12 18.96 12 30C12 39.92 18.96 48 28 50V54C28 55.1 28.9 56 30 56H34C35.1 56 36 55.1 36 54V50C45.04 48 52 39.92 52 30C52 18.96 43.04 10 32 10ZM30 44V48H34V44H30ZM32 40C24.28 40 18 34.72 18 30C18 25.28 24.28 20 32 20C39.72 20 46 25.28 46 30C46 34.72 39.72 40 32 40Z" fill="#9C27B0"/>
  <circle cx="32" cy="30" r="8" stroke="#E91E63" stroke-width="2"/>
</svg>